<svg width="14" height="14" viewBox="0 0 10 11" fill="none" xmlns="http://www.w3.org/2000/svg">
<path d="M5.11726 3.61527C5.11726 3.36124 4.91133 3.15531 4.65729 3.15531C4.40326 3.15531 4.19733 3.36124 4.19733 3.61527V4.99518H2.81742C2.56339 4.99518 2.35746 5.20111 2.35746 5.45515C2.35746 5.70918 2.56339 5.91511 2.81742 5.91511H4.19733V7.29502C4.19733 7.54905 4.40326 7.75498 4.65729 7.75498C4.91133 7.75498 5.11726 7.54905 5.11726 7.29502V5.91511H6.49716C6.7512 5.91511 6.95713 5.70918 6.95713 5.45515C6.95713 5.20111 6.7512 4.99518 6.49716 4.99518H5.11726V3.61527ZM4.65729 0.855469C2.11827 0.855469 0.0576172 2.91612 0.0576172 5.45515C0.0576172 7.99417 2.11827 10.0548 4.65729 10.0548C7.19632 10.0548 9.25697 7.99417 9.25697 5.45515C9.25697 2.91612 7.19632 0.855469 4.65729 0.855469ZM4.65729 9.13489C2.62884 9.13489 0.977553 7.4836 0.977553 5.45515C0.977553 3.42669 2.62884 1.7754 4.65729 1.7754C6.68575 1.7754 8.33704 3.42669 8.33704 5.45515C8.33704 7.4836 6.68575 9.13489 4.65729 9.13489Z" fill="white"/>
</svg>
