<svg width="181" height="48" viewBox="0 0 181 48" fill="none" xmlns="http://www.w3.org/2000/svg">
<path d="M97.3545 14.3405V34.0613C97.3545 37.616 95.6846 41.0252 92.7122 43.5387C89.7399 46.0522 85.7084 47.4643 81.5049 47.4643C77.3013 47.4643 73.2699 46.0522 70.2975 43.5387C67.3252 41.0252 65.6553 37.616 65.6553 34.0613V14.3405C65.6553 10.7858 67.3252 7.37669 70.2975 4.86314C73.2699 2.34959 77.3013 0.9375 81.5049 0.9375C85.7084 0.9375 89.7399 2.34959 92.7122 4.86314C95.6846 7.37669 97.3545 10.7858 97.3545 14.3405ZM73.2972 34.0613C73.3434 35.8767 74.2286 37.6046 75.7632 38.8746C77.2977 40.1447 79.3595 40.8559 81.5068 40.8559C83.654 40.8559 85.7158 40.1447 87.2504 38.8746C88.7849 37.6046 89.6701 35.8767 89.7163 34.0613V14.3405C89.6701 12.5251 88.7849 10.7973 87.2504 9.52721C85.7158 8.25714 83.654 7.54589 81.5068 7.54589C79.3595 7.54589 77.2977 8.25714 75.7632 9.52721C74.2286 10.7973 73.3434 12.5251 73.2972 14.3405V34.0613Z" fill="#383838"/>
<path d="M139.112 14.3405V34.0613C139.112 37.616 137.442 41.0252 134.47 43.5387C131.498 46.0522 127.466 47.4643 123.263 47.4643C119.059 47.4643 115.028 46.0522 112.055 43.5387C109.083 41.0252 107.413 37.616 107.413 34.0613V14.3405C107.413 10.7858 109.083 7.37669 112.055 4.86314C115.028 2.34959 119.059 0.9375 123.263 0.9375C127.466 0.9375 131.498 2.34959 134.47 4.86314C137.442 7.37669 139.112 10.7858 139.112 14.3405ZM115.051 34.0613C115.051 35.903 115.916 37.6692 117.456 38.9714C118.996 40.2736 121.085 41.0052 123.263 41.0052C125.44 41.0052 127.529 40.2736 129.069 38.9714C130.609 37.6692 131.474 35.903 131.474 34.0613V14.3405C131.474 12.4989 130.609 10.7326 129.069 9.43041C127.529 8.12818 125.44 7.39662 123.263 7.39662C121.085 7.39662 118.996 8.12818 117.456 9.43041C115.916 10.7326 115.051 12.4989 115.051 14.3405V34.0613Z" fill="#383838"/>
<path d="M180.869 1.01758H173.242C173.242 1.13315 173.242 1.24871 173.242 1.36428V34.0579C173.242 37.8654 165.031 40.9601 165.031 40.9601C165.031 40.9601 156.82 37.8654 156.82 34.0579V1.36428C156.82 1.24871 156.82 1.13315 156.82 1.01758H149.174C149.174 1.13315 149.174 1.24871 149.174 1.36428V34.0579C149.174 41.4063 165.023 47.3807 165.023 47.3807C165.023 47.3807 180.873 41.4063 180.873 34.0579V1.36428C180.873 1.24871 180.873 1.13315 180.869 1.01758Z" fill="#383838"/>
<path d="M55.6162 14.3405V34.0613C55.6162 37.616 53.9463 41.0252 50.9739 43.5387C48.0015 46.0522 43.9702 47.4643 39.7666 47.4643C35.563 47.4643 31.5316 46.0522 28.5592 43.5387C25.5868 41.0252 23.917 37.616 23.917 34.0613V14.3405C23.917 10.7858 25.5868 7.37669 28.5592 4.86314C31.5316 2.34959 35.563 0.9375 39.7666 0.9375C43.9702 0.9375 48.0015 2.34959 50.9739 4.86314C53.9463 7.37669 55.6162 10.7858 55.6162 14.3405ZM31.5552 34.0613C31.5552 35.903 32.4203 37.6692 33.9602 38.9714C35.5002 40.2736 37.5888 41.0052 39.7666 41.0052C41.9444 41.0052 44.033 40.2736 45.5729 38.9714C47.1129 37.6692 47.978 35.903 47.978 34.0613V14.3405C47.978 12.4989 47.1129 10.7326 45.5729 9.43041C44.033 8.12818 41.9444 7.39662 39.7666 7.39662C37.5888 7.39662 35.5002 8.12818 33.9602 9.43041C32.4203 10.7326 31.5552 12.4989 31.5552 14.3405V34.0613Z" fill="#383838"/>
<path d="M31.4638 14.3406V34.0614C31.4638 37.5897 29.8063 40.9735 26.856 43.4684C23.9057 45.9633 19.9043 47.3649 15.7319 47.3649C11.5595 47.3649 7.55806 45.9633 4.60775 43.4684C1.65745 40.9735 0 37.5897 0 34.0614V14.3406C0 10.8123 1.65745 7.42848 4.60775 4.93359C7.55806 2.43871 11.5595 1.03711 15.7319 1.03711C19.9043 1.03711 23.9057 2.43871 26.856 4.93359C29.8063 7.42848 31.4638 10.8123 31.4638 14.3406ZM7.58122 34.0614C7.58122 35.8895 8.43996 37.6426 9.96851 38.9352C11.4971 40.2278 13.5702 40.9539 15.7319 40.9539C17.8936 40.9539 19.9668 40.2278 21.4953 38.9352C23.0239 37.6426 23.8826 35.8895 23.8826 34.0614V14.3406C23.8826 12.5126 23.0239 10.7594 21.4953 9.46685C19.9668 8.17425 17.8936 7.44806 15.7319 7.44806C13.5702 7.44806 11.4971 8.17425 9.96851 9.46685C8.43996 10.7594 7.58122 12.5126 7.58122 14.3406V34.0614Z" fill="#383838"/>
</svg>
