<svg width="17" height="16" viewBox="0 0 17 16" fill="none" xmlns="http://www.w3.org/2000/svg">
<path d="M8.36343 0.197266C4.02066 0.197266 0.496094 3.72183 0.496094 8.0646C0.496094 12.4074 4.02066 15.9319 8.36343 15.9319C12.7062 15.9319 16.2308 12.4074 16.2308 8.0646C16.2308 3.72183 12.7062 0.197266 8.36343 0.197266ZM14.6022 7.27787L9.15016 7.27787V1.8258C11.9903 2.17983 14.2482 4.43776 14.6022 7.27787ZM2.06956 8.0646C2.06956 4.8626 4.47697 2.2113 7.5767 1.8258L7.5767 14.3034C4.47697 13.9179 2.06956 11.2666 2.06956 8.0646ZM9.15016 14.3034V8.85133H14.6022C14.2482 11.6914 11.9903 13.9494 9.15016 14.3034Z" fill="#CACACA"/>
</svg>
