<svg width="29" height="27" viewBox="0 0 29 27" fill="none" xmlns="http://www.w3.org/2000/svg">
<path d="M14.0357 0C6.28798 0 0 6.02501 0 13.4487C0 20.8723 6.28798 26.8973 14.0357 26.8973C21.7833 26.8973 28.0713 20.8723 28.0713 13.4487C28.0713 6.02501 21.7833 0 14.0357 0ZM21.0535 13.4487C21.0535 14.1914 20.4514 14.7935 19.7086 14.7935H15.4392H12.6321H8.3627C7.61995 14.7935 7.01783 14.1914 7.01783 13.4487C7.01783 12.7059 7.61995 12.1038 8.3627 12.1038H12.6321H15.4392H19.7086C20.4514 12.1038 21.0535 12.7059 21.0535 13.4487Z" fill="#DEDEDE"/>
</svg>