<svg width="18" height="18" viewBox="0 0 18 18" fill="none" xmlns="http://www.w3.org/2000/svg">
<path d="M8.52109 0.402344C3.81654 0.402344 0 4.21401 0 8.91887C0 13.6283 3.81654 17.4445 8.52109 17.4445C13.2281 17.4445 17.0416 13.6283 17.0416 8.91887C17.0415 4.21401 13.2281 0.402344 8.52109 0.402344ZM9.12831 13.6603C8.93038 13.8364 8.70107 13.9249 8.44121 13.9249C8.17243 13.9249 7.93789 13.838 7.7377 13.6637C7.53728 13.4898 7.43682 13.2463 7.43682 12.9336C7.43682 12.6561 7.53406 12.4225 7.72783 12.2333C7.9216 12.044 8.15925 11.9494 8.4412 11.9494C8.71866 11.9494 8.95225 12.044 9.14176 12.2333C9.33101 12.4225 9.42599 12.656 9.42599 12.9336C9.42563 13.2419 9.32649 13.4842 9.12833 13.6603L9.12831 13.6603ZM11.596 7.54241C11.4439 7.82439 11.2633 8.06749 11.0539 8.27255C10.845 8.47749 10.4695 8.82201 9.92729 9.30643C9.77786 9.44314 9.65755 9.56309 9.56733 9.66639C9.47722 9.77005 9.40982 9.86455 9.36584 9.95062C9.32161 10.0366 9.28761 10.1225 9.26348 10.2085C9.23947 10.2941 9.20321 10.4451 9.15411 10.661C9.07078 11.1191 8.80864 11.3481 8.36822 11.3481C8.13915 11.3481 7.94667 11.2734 7.78989 11.1236C7.63368 10.9738 7.5557 10.7515 7.5557 10.4563C7.5557 10.0865 7.61312 9.76598 7.72759 9.49495C7.84148 9.22391 7.99388 8.98615 8.18314 8.78121C8.37275 8.57627 8.62809 8.33304 8.94976 8.05108C9.23174 7.80441 9.43537 7.61836 9.56079 7.49295C9.68656 7.36718 9.79212 7.22738 9.87771 7.07344C9.96401 6.91913 10.0063 6.75201 10.0063 6.57142C10.0063 6.21895 9.87581 5.92187 9.61345 5.67972C9.35133 5.43757 9.01323 5.31633 8.5992 5.31633C8.11453 5.31633 7.7578 5.43853 7.52871 5.68294C7.29961 5.92736 7.10621 6.2873 6.94751 6.76305C6.79736 7.2609 6.51314 7.50984 6.09515 7.50984C5.84848 7.50984 5.64034 7.42294 5.47059 7.24902C5.30119 7.07511 5.21655 6.88694 5.21655 6.68413C5.21655 6.26581 5.351 5.84176 5.61941 5.41227C5.88819 4.98278 6.28025 4.62696 6.79569 4.34534C7.31079 4.06336 7.91229 3.92226 8.59906 3.92226C9.23765 3.92226 9.80138 4.04031 10.2902 4.27604C10.779 4.51142 11.1569 4.83192 11.4234 5.2374C11.6897 5.64252 11.8231 6.08297 11.8231 6.55872C11.8241 6.93234 11.748 7.26056 11.5959 7.54242L11.596 7.54241Z" fill="#535353"/>
</svg>
