<svg width="29" height="27" viewBox="0 0 29 27" fill="none" xmlns="http://www.w3.org/2000/svg">
<path d="M14.0357 0C6.28798 0 0 6.02501 0 13.4487C0 20.8723 6.28798 26.8973 14.0357 26.8973C21.7833 26.8973 28.0713 20.8723 28.0713 13.4487C28.0713 6.02501 21.7833 0 14.0357 0ZM21.0535 13.0663C21.0535 13.2261 21.2866 13.2435 21.3104 13.0855L22 8.5C20.7 8.5 19.9119 9.93478 20.6092 11.0319L22.2412 13.5996C22.6072 14.1756 23.4369 14.206 23.8441 13.6583C24.3217 13.016 23.8633 12.1038 23.0628 12.1038H12.6321L21.3494 16.7793C21.7836 17.0123 22.2857 16.6123 22.1558 16.137L21.3072 13.0322C21.2675 12.8869 21.0535 12.9156 21.0535 13.0663Z" fill="#DEDEDE"/>
<path d="M12.1551 18.7863C11.9671 18.5984 11.95 18.3043 12.1038 18.097L12.1551 18.0376L16.7216 13.4708L12.1551 8.90399C11.9671 8.71604 11.95 8.42192 12.1038 8.21467L12.1551 8.15529C12.343 7.96734 12.6371 7.95025 12.8444 8.10403L12.9038 8.15529L17.8449 13.0965C18.0329 13.2844 18.05 13.5785 17.8962 13.7858L17.8449 13.8452L12.9038 18.7863C12.697 18.9931 12.3618 18.9931 12.1551 18.7863Z" fill="white"/>
</svg>
